<?xml version="1.0" encoding="UTF-8"?> <svg xmlns="http://www.w3.org/2000/svg" xmlns:xlink="http://www.w3.org/1999/xlink" width="247" height="54.364" viewBox="0 0 247 54.364"><defs><clipPath id="a"><rect width="246.998" height="54.364" fill="none"></rect></clipPath></defs><g transform="translate(-1450.759 -103.726)"><g transform="translate(1450.759 103.726)"><g clip-path="url(#a)"><path d="M1489.131,106.6a69.09,69.09,0,0,1,8.492,9.321c-1.819,1.358-3.825,2.937-5.906,4.789-2.819,2.511-4.358,3.924-6.167,3.731s-3.877-2.069-7.8-5.981c2.246-2.282,4.4-4.473,6.419-6.569,1.871-1.946,3.541-3.731,4.958-5.29m-37.144,8.042a74.333,74.333,0,0,1,8.409-8.906c2.7,3.052,6.068,6.7,9.936,10.663,4.11,4.216,8.373,8.456,12.562,12.589-3.513,3.494-5.638,5.2-7.73,5.124s-4.228-1.966-7.8-5.5c-2.815-2.791-5.606-5.468-8.318-7.967-2.534-2.333-4.931-4.339-7.062-6" transform="translate(-1447.14 -97.795)" fill="#fff"></path><path d="M1503.419,110.135c1.007,1.907,1.9,2.088,1.67,5.7s-4.951,11.014-10.584,16.648-12.988,10.284-16.584,10.5-3.786-.639-5.681-1.642a161.672,161.672,0,0,1,14.547-16.628,168.218,168.218,0,0,1,16.632-14.587m-34.5,29.043a76.749,76.749,0,0,1-12.108-11.563c-3.447-4.031-5.961-8.7-6.044-11.776s.963-4.658,2.428-7a128.255,128.255,0,0,1,11.141,9.4c4.121,3.881,8.124,7.994,11.993,12.064-2.874,3.206-5.4,6.19-7.41,8.878" transform="translate(-1450.758 -88.663)" fill="#fff"></path><path d="M1465.543,103.731c2.661-.071,3.739.624,5.594,1.619a35.179,35.179,0,0,1,5.953,4.228c-1.382,1.729-2.992,3.664-4.867,5.712-2.764,3.02-4.327,4.575-6,4.493s-3.446-1.792-6.537-5.243c-1.828-2.041-3.4-4.007-4.722-5.756,3.6-2.953,7.923-4.978,10.584-5.053" transform="translate(-1438.38 -103.727)" fill="#f59c17"></path></g></g><path d="M1500.063,145.538a39.443,39.443,0,0,1-12.388,1.8c-12.72,0-20.6-8.863-20.6-21.006,0-12.637,8.2-21.006,20.6-21.006a39.333,39.333,0,0,1,12.388,1.808v7.876c-3.608-1.887-8.12-2.38-12.143-2.38-9.435,0-13.454,4.844-13.454,13.62,0,9.19,4.595,13.785,13.454,13.785,3.612,0,8.945-.655,12.143-2.381v7.88Z" transform="translate(48.109 4.728)" fill="#fff"></path><path d="M1496.119,112.306c-8.941,0-12.881,5.827-12.881,13.947,0,8.535,4.268,13.951,12.8,13.951,8.941,0,12.636-5.5,12.636-13.951-.327-8.2-3.7-13.947-12.554-13.947Zm15.834,34.46a29.767,29.767,0,0,1-2.214-7.137c-3.281,5.089-8.453,7.548-14.441,7.548-11.977,0-19.446-9.763-19.446-21,0-12.309,8.208-20.844,20.267-20.844,12.716,0,19.609,9.111,19.936,20.923.083,1.07.083,2.3.083,3.778a41.647,41.647,0,0,0,3.2,16.734Z" transform="translate(73.963 4.728)" fill="#fff"></path><path d="M1550.265,146.765h-7.386V124.615c0-6.648-2.792-12.309-10.173-12.309s-9.929,5.744-9.929,12.309v22.151h-7.386V124.615c0-6.565-2.542-12.309-9.925-12.309-7.3,0-10.177,5.661-10.177,12.309v22.151h-7.382V124.615c0-10.667,6.482-19.285,17.394-19.285a14.673,14.673,0,0,1,13.786,8.946,14.459,14.459,0,0,1,13.781-8.946c11.243,0,17.4,8.946,17.4,19.285v22.151Z" transform="translate(109.501 4.728)" fill="#fff"></path><path d="M1504.93,138.479a36.913,36.913,0,0,0,7.3,1.232,66.484,66.484,0,0,0,8.12.493c3.529,0,10.5-.083,10.5-5.172a3.108,3.108,0,0,0-2.049-3.119,23.914,23.914,0,0,0-3.609-1.145c-1.559-.411-3.612-.821-6.154-1.315-1.149-.245-2.464-.493-4.023-.821a12.467,12.467,0,0,1-8.2-5.168,9.36,9.36,0,0,1-1.559-5.744c0-9.518,8.7-12.392,16.573-12.392a62.754,62.754,0,0,1,14.113,1.808v7.055c-.738-.245-1.721-.411-2.87-.655a54.691,54.691,0,0,0-11.571-1.066c-3.609,0-9.108.328-9.108,5.168a3.116,3.116,0,0,0,.494,1.8c.655,1.232,3.691,2.136,4.923,2.463a53.447,53.447,0,0,0,5.333,1.232c1.97.411,3.857.9,5.661,1.311,5.578,1.315,9.273,4.185,9.273,10.094,0,10.09-9.928,12.716-18.135,12.716a65.924,65.924,0,0,1-15.013-1.8v-6.976Z" transform="translate(159.68 4.728)" fill="#fff"></path></g></svg> 